HIERARCHY
ROOT Hips
{
 OFFSET 0.000000 0.000000 0.000000
 CHANNELS 6 Xposition Yposition Zposition Yrotation Xrotation Zrotation
 JOINT Chest
 {
  OFFSET 0.000000 9.585900 0.002600
  CHANNELS 3 Yrotation Xrotation Zrotation
  JOINT Chest2
  {
   OFFSET 0.000000 9.601200 -0.005300
   CHANNELS 3 Yrotation Xrotation Zrotation
   JOINT Chest3
   {
    OFFSET 0.000000 9.561800 0.000000
    CHANNELS 3 Yrotation Xrotation Zrotation
    JOINT Chest4
    {
     OFFSET 0.000000 9.552100 0.000000
     CHANNELS 3 Yrotation Xrotation Zrotation
     JOINT Neck
     {
      OFFSET 0.000000 14.453000 0.000000
      CHANNELS 3 Yrotation Xrotation Zrotation
      JOINT Head
      {
       OFFSET 0.000000 8.936500 -0.011300
       CHANNELS 3 Yrotation Xrotation Zrotation
       End Site
       {
        OFFSET 0.000000 17.073600 -0.006000
       }
      }
     }
     JOINT RightCollar
     {
      OFFSET -2.921100 9.558500 0.000000
      CHANNELS 3 Yrotation Xrotation Zrotation
      JOINT RightShoulder
      {
       OFFSET -13.519700 0.000000 0.000000
       CHANNELS 3 Yrotation Xrotation Zrotation
       JOINT RightElbow
       {
        OFFSET 0.000000 -29.696600 0.000000
        CHANNELS 3 Yrotation Xrotation Zrotation
        JOINT RightWrist
        {
         OFFSET 0.000000 -24.004700 0.000000
         CHANNELS 3 Yrotation Xrotation Zrotation
         End Site
         {
          OFFSET 0.000000 -17.728500 0.000000
         }
        }
       }
      }
     }
     JOINT LeftCollar
     {
      OFFSET 2.921100 9.558500 0.000000
      CHANNELS 3 Yrotation Xrotation Zrotation
      JOINT LeftShoulder
      {
       OFFSET 13.519700 0.000000 0.000000
       CHANNELS 3 Yrotation Xrotation Zrotation
       JOINT LeftElbow
       {
        OFFSET 0.000000 -29.696600 0.000000
        CHANNELS 3 Yrotation Xrotation Zrotation
        JOINT LeftWrist
        {
         OFFSET 0.000000 -24.004700 0.000000
         CHANNELS 3 Yrotation Xrotation Zrotation
         End Site
         {
          OFFSET 0.000000 -17.728500 0.000000
         }
        }
       }
      }
     }
    }
   }
  }
 }
 JOINT RightHip
 {
  OFFSET -7.771700 -0.012900 -0.001300
  CHANNELS 3 Yrotation Xrotation Zrotation
  JOINT RightKnee
  {
   OFFSET 0.000000 -40.869800 0.001200
   CHANNELS 3 Yrotation Xrotation Zrotation
   JOINT RightAnkle
   {
    OFFSET 0.000000 -39.717900 0.002100
    CHANNELS 3 Yrotation Xrotation Zrotation
    JOINT RightToe
    {
     OFFSET 0.000000 -4.965400 11.033500
     CHANNELS 3 Yrotation Xrotation Zrotation
     End Site
     {
      OFFSET 0.000000 -1.423100 5.872300
     }
    }
   }
  }
 }
 JOINT LeftHip
 {
  OFFSET 7.771700 -0.012900 -0.001300
  CHANNELS 3 Yrotation Xrotation Zrotation
  JOINT LeftKnee
  {
   OFFSET 0.000000 -40.869800 0.001200
   CHANNELS 3 Yrotation Xrotation Zrotation
   JOINT LeftAnkle
   {
    OFFSET 0.000000 -39.717900 0.002100
    CHANNELS 3 Yrotation Xrotation Zrotation
    JOINT LeftToe
    {
     OFFSET 0.000000 -4.965400 11.033500
     CHANNELS 3 Yrotation Xrotation Zrotation
     End Site
     {
      OFFSET 0.000000 -1.423100 5.872300
     }
    }
   }
  }
 }
}
MOTION
Frames: 14
Frame Time: 0.008333
0.000000 85.388000 0.000000 0.000000 -5.767877 0.000000 0.000000 11.653817 0.000000 0.000000 -5.885947 0.000000 0.000000 -0.000000 0.000000 0.000000 -0.000000 0.000000 0.000000 12.528835 0.000000 0.000000 0.711642 0.000000 0.000000 -0.000000 0.000000 0.000000 0.000000 -90.000000 0.000000 -2.309062 0.000000 0.000000 2.309062 0.000000 0.000000 -0.000000 0.000000 0.000000 -0.000000 90.000000 0.000000 -2.309062 0.000000 0.000000 2.309062 0.000000 0.000000 8.520406 0.000000 0.000000 1.905762 0.000000 -0.000000 -4.658285 0.000000 0.000000 -0.000000 0.000000 0.000000 8.520406 0.000000 0.000000 1.905762 0.000000 -0.000000 -4.658285 0.000000 0.000000 -0.000000 0.000000
8.534151 52.034560 39.735284 170.299822 -38.081449 -1.114419 4.794437 23.857772 2.779307 0.577625 3.716861 0.506523 1.000134 5.887808 0.802103 3.758556 19.864296 3.259078 -0.263459 14.326150 -1.401624 0.042009 -9.183765 -2.532996 -3.455472 -3.809787 -4.916585 -9.526801 -29.843154 -10.514508 -91.408246 -26.214634 132.844943 -14.886585 4.347524 55.009618 -6.535275 -1.063396 3.532387 19.645165 -36.449505 17.459267 76.526131 -26.349398 -135.108411 23.549124 -5.584154 -30.077597 -7.374437 -42.830569 5.418193 144.075026 84.125724 148.261205 -3.841237 -12.402591 -5.170005 0.478408 -0.870918 0.214539 2.495501 -39.608436 5.733679 71.765032 82.887549 61.282498 -6.537846 -12.059067 10.092756 0.483388 1.545062 0.225045
8.537675 52.034223 39.728263 170.300670 -38.113772 -1.112788 4.811786 23.869162 2.780585 0.582486 3.706519 0.501319 1.004699 5.890253 0.799663 3.766511 19.862778 3.250121 -0.208394 14.443538 -1.353074 0.124738 -8.965454 -2.461358 -3.478269 -3.781308 -4.882719 -9.229038 -29.715624 -10.241305 -91.048991 -26.290065 131.864602 -15.394729 3.997481 53.890570 -6.605624 -1.013822 3.485196 19.095131 -36.399990 17.372274 76.259285 -26.040195 -134.161888 24.508309 -6.832083 -28.079170 -7.361362 -42.799133 5.403996 144.071702 84.112670 148.265460 -3.834159 -12.408031 -5.172890 0.477113 -0.876680 0.213056 2.493795 -39.575120 5.741051 71.833543 82.898119 61.344897 -6.533161 -12.067943 10.094488 0.489060 1.540360 0.225083
8.539915 52.032368 39.721228 170.315355 -38.139302 -1.109777 4.802353 23.889175 2.770296 0.600972 3.686776 0.493715 1.007157 5.891635 0.793593 3.768282 19.866111 3.248105 -0.149608 14.550078 -1.320091 0.207481 -8.759661 -2.397225 -3.482075 -3.730254 -4.862951 -8.939607 -29.607642 -9.936171 -90.701244 -26.429172 130.832202 -15.943915 3.610137 52.666485 -6.670371 -0.951087 3.426704 18.504138 -36.361019 17.278225 75.962682 -25.732148 -133.119986 25.422279 -8.059767 -26.026647 -7.351848 -42.776319 5.378129 144.067960 84.094750 148.270583 -3.838664 -12.420322 -5.176401 0.474675 -0.879494 0.212496 2.485828 -39.549196 5.738291 71.877752 82.909724 61.382329 -6.541529 -12.071110 10.093932 0.502445 1.537411 0.229399
8.540827 52.031125 39.711769 170.337468 -38.177633 -1.099829 4.799159 23.903873 2.746435 0.602971 3.686169 0.491270 1.005465 5.900514 0.795265 3.760852 19.874452 3.256947 -0.083030 14.644588 -1.316282 0.285907 -8.564157 -2.342715 -3.468348 -3.594769 -4.871418 -8.663491 -29.581052 -9.619419 -90.359775 -26.590944 129.747086 -16.527011 3.198940 51.380199 -6.723848 -0.878554 3.348914 17.902913 -36.332953 17.169980 75.675645 -25.459776 -132.022133 26.277032 -9.258642 -23.889109 -7.317424 -42.743671 5.319634 144.047134 84.069081 148.272543 -3.845283 -12.434608 -5.180926 0.470825 -0.885537 0.212931 2.480060 -39.510162 5.722250 71.922326 82.924406 61.419862 -6.555397 -12.065634 10.092310 0.515625 1.527120 0.235392
8.544394 52.028052 39.704343 170.339030 -38.203590 -1.094772 4.855979 23.895735 2.745792 0.607933 3.686347 0.487302 0.955843 5.926199 0.820079 3.786511 19.860861 3.229162 -0.030535 14.751104 -1.284887 0.356115 -8.380222 -2.297229 -3.492118 -3.489090 -4.843597 -8.362872 -29.493362 -9.351273 -90.014974 -26.735995 128.620555 -17.116486 2.765917 50.056144 -6.803062 -0.770406 3.303607 17.299177 -36.311169 17.057425 75.415577 -25.247753 -130.880186 27.062956 -10.424668 -21.686279 -7.301997 -42.723303 5.303152 144.087889 84.052159 148.321149 -3.841461 -12.440475 -5.183122 0.459796 -0.891979 0.211457 2.476432 -39.486570 5.730877 71.980023 82.952628 61.465301 -6.541106 -12.072242 10.099019 0.509429 1.520688 0.235141
8.548581 52.023274 39.698949 170.335069 -38.216998 -1.092965 4.893376 23.898063 2.752559 0.610984 3.687670 0.485573 0.960674 5.920695 0.814509 3.799244 19.860336 3.221311 0.010820 14.851744 -1.255007 0.416630 -8.211427 -2.259608 -3.525434 -3.380889 -4.817486 -8.063415 -29.387739 -9.118105 -89.665837 -26.846542 127.467655 -17.672369 2.312347 48.692073 -6.893009 -0.652499 3.263922 16.698211 -36.293366 16.952217 75.159515 -25.074027 -129.692119 27.756955 -11.546604 -19.473529 -7.295377 -42.713903 5.302274 144.145395 84.041885 148.382671 -3.832881 -12.449018 -5.183874 0.453165 -0.890270 0.207941 2.472496 -39.476483 5.747348 72.053212 82.974367 61.526553 -6.532164 -12.083480 10.106491 0.505521 1.521085 0.233516
8.551228 52.018302 39.693736 170.331913 -38.231795 -1.084617 4.910149 23.908758 2.749604 0.628101 3.686374 0.479836 1.002717 5.921719 0.797782 3.818289 19.866485 3.212594 0.021005 14.933346 -1.199009 0.468533 -8.059019 -2.229871 -3.591774 -3.280178 -4.763756 -7.750456 -29.267140 -8.912900 -89.324261 -26.932037 126.293235 -18.167257 1.842430 47.272754 -7.019972 -0.538240 3.257724 16.117197 -36.283112 16.857595 74.856869 -24.891372 -128.452408 28.317025 -12.618582 -17.304195 -7.270228 -42.707656 5.287410 144.178854 84.026476 148.425212 -3.836262 -12.458448 -5.179884 0.448637 -0.889902 0.205093 2.474061 -39.465755 5.754750 72.155219 82.991878 61.614197 -6.528629 -12.090014 10.118404 0.498414 1.517777 0.229189
8.553877 52.013854 39.688508 170.331103 -38.254587 -1.080275 4.926338 23.927673 2.749881 0.643026 3.684468 0.473514 1.008278 5.929566 0.796060 3.845286 19.878746 3.200461 0.014671 14.959430 -1.159026 0.541045 -7.878419 -2.228577 -3.629369 -3.176973 -4.729202 -7.417442 -29.143720 -8.713146 -88.994815 -27.026427 125.094152 -18.616171 1.354857 45.778036 -7.127591 -0.427130 3.229720 15.564926 -36.285701 16.772158 74.481643 -24.664108 -127.152494 28.699241 -13.631900 -15.204135 -7.250761 -42.691956 5.274359 144.201831 84.011031 148.459015 -3.842867 -12.464671 -5.181725 0.445931 -0.892711 0.204915 2.474151 -39.447864 5.761101 72.254552 83.005949 61.708059 -6.530340 -12.095492 10.115997 0.499435 1.514823 0.233985
8.559062 52.013798 39.679149 170.309279 -38.322641 -1.076778 4.980384 23.981836 2.769957 0.644262 3.689700 0.469225 1.014131 5.939961 0.794291 3.851121 19.886170 3.202863 0.023673 14.989164 -1.140912 0.597914 -7.717699 -2.238552 -3.642909 -3.058700 -4.708213 -7.085400 -29.027855 -8.484544 -88.645473 -27.163755 123.867298 -19.060733 0.837061 44.190708 -7.213215 -0.307674 3.180290 15.035592 -36.305677 16.698554 74.044377 -24.378599 -125.791791 28.886674 -14.569029 -13.163108 -7.220324 -42.626833 5.272198 144.187157 83.991197 148.449463 -3.815817 -12.474265 -5.181563 0.414389 -0.893336 0.199978 2.481587 -39.381604 5.784750 72.351753 83.015865 61.794082 -6.481844 -12.075808 10.133600 0.451118 1.476419 0.214032
8.558815 52.009596 39.675207 170.319724 -38.354693 -1.070165 4.993054 24.000840 2.757792 0.641884 3.698311 0.468043 1.010862 5.946957 0.798470 3.849364 19.887370 3.208239 0.089305 15.131849 -1.194890 0.585937 -7.681867 -2.196295 -3.644220 -2.919144 -4.705556 -6.781256 -28.934811 -8.204906 -88.221738 -27.345787 122.603121 -19.532947 0.276504 42.509541 -7.277220 -0.174370 3.108994 14.513815 -36.341201 16.644776 73.574697 -24.051659 -124.384005 28.895866 -15.425498 -11.151677 -7.182965 -42.602777 5.244998 144.144730 83.972196 148.417657 -3.844475 -12.489744 -5.172564 0.417193 -0.887799 0.202224 2.484808 -39.351485 5.774761 72.413632 83.021829 61.848270 -6.480946 -12.083599 10.138169 0.444585 1.479360 0.214138
8.559999 52.004984 39.673357 170.332903 -38.386589 -1.079416 5.011000 24.017601 2.755589 0.625431 3.710662 0.480564 1.020430 5.951859 0.792098 3.877423 19.908474 3.185434 0.105051 15.204592 -1.205689 0.591668 -7.623797 -2.174523 -3.681740 -2.783602 -4.664679 -6.524613 -28.878197 -7.886816 -87.688290 -27.529723 121.296536 -20.047127 -0.316916 40.762476 -7.362344 -0.051139 3.079070 13.980361 -36.381318 16.614351 73.112894 -23.722073 -122.948541 28.766510 -16.191564 -9.152188 -7.182359 -42.574339 5.242059 144.118883 83.961906 148.394198 -3.851572 -12.495305 -5.167932 0.423212 -0.884663 0.195310 2.480262 -39.328281 5.784285 72.470553 83.034605 61.905643 -6.489448 -12.076500 10.133764 0.454054 1.472162 0.223348
8.555141 51.998698 39.673763 170.370304 -38.406972 -1.073922 5.021280 24.018309 2.704985 0.606733 3.728526 0.500418 1.026770 5.966103 0.788663 3.921025 19.965652 3.135821 0.089932 15.168016 -1.127558 0.604576 -7.535037 -2.205792 -3.743865 -2.678453 -4.572796 -6.316692 -28.848551 -7.572975 -87.051692 -27.653362 119.965554 -20.600140 -0.922732 38.999726 -7.461127 0.035417 3.107983 13.430853 -36.412075 16.605228 72.679388 -23.425662 -121.508501 28.538325 -16.850768 -7.166237 -7.175829 -42.562004 5.199829 144.076831 83.950517 148.353107 -3.885311 -12.499168 -5.171270 0.443966 -0.885671 0.206204 2.481180 -39.312718 5.750013 72.507361 83.042436 61.942271 -6.531598 -12.097459 10.128225 0.490857 1.499301 0.243234
8.553432 51.997185 39.670127 170.378437 -38.476306 -1.068017 5.039865 24.082253 2.688445 0.632314 3.741018 0.479612 1.047188 6.006294 0.775002 3.926802 19.979380 3.142561 0.081142 15.135980 -1.080213 0.585033 -7.477418 -2.247512 -3.790210 -2.559229 -4.516736 -6.129006 -28.820672 -7.303958 -86.358489 -27.676548 118.638894 -21.161629 -1.532074 37.271728 -7.540279 0.126193 3.110556 12.874608 -36.429314 16.622738 72.273040 -23.174131 -120.081896 28.236178 -17.399282 -5.242548 -7.128916 -42.498839 5.158810 144.044284 83.940784 148.337520 -3.900183 -12.500742 -5.167034 0.442855 -0.889618 0.210835 2.485876 -39.244199 5.739623 72.524403 83.045649 61.956540 -6.528568 -12.092457 10.129047 0.500149 1.493257 0.243328
